<svg width="805" height="484" viewBox="0 0 805 484" fill="none" xmlns="http://www.w3.org/2000/svg">
<path d="M402.323 432.67H267V429.001H402.323V432.67Z" fill="#FF8500"/>
<path d="M402.323 439.996H267V436.327H402.323V439.996Z" fill="#FF8500"/>
<path d="M402.323 447.313H267V443.644H402.323V447.313Z" fill="#FF8500"/>
<path d="M402.323 450.98V454.649H282.037L267 450.98H402.323Z" fill="#FF8500"/>
<path d="M402.324 458.316V461.985H312.106L297.076 458.316H402.324Z" fill="#FF8500"/>
<path d="M402.326 465.655V469.324H342.183L327.146 465.655H402.326Z" fill="#FF8500"/>
<path d="M402.324 472.992V476.661H372.249L357.218 472.992H402.324Z" fill="#FF8500"/>
<path d="M402.324 480.331V484L387.287 480.331H402.324Z" fill="#FF8500"/>
<path d="M537.648 436.328H402.325V429.01H537.648V436.328Z" fill="black"/>
<path d="M537.648 443.658H402.325V439.989H537.648V443.658Z" fill="black"/>
<path d="M537.648 450.981H402.325V447.312H537.648V450.981Z" fill="black"/>
<path d="M402.325 458.317V454.655H522.611L507.573 458.317H402.325Z" fill="black"/>
<path d="M402.325 465.653V461.984H492.543L477.505 465.653H402.325Z" fill="black"/>
<path d="M402.325 472.992V469.323H462.468L447.43 472.992H402.325Z" fill="black"/>
<path d="M402.325 480.325V476.656H432.4L417.362 480.325H402.325Z" fill="black"/>
<rect x="1.07317" y="100.878" width="802.732" height="327.317" rx="16.0976" stroke="black" stroke-width="2.14634"/>
<path d="M268.583 290.293H221.363V374H169.422V290.293H39.3534V258.527L175.431 71.3659H221.363V245.649H268.583V290.293ZM169.422 179.971L173.285 143.912H171.568L156.973 174.82L112.329 232.771L90.8656 249.083L118.339 245.649H169.422V179.971ZM755.702 290.293H708.482V374H656.541V290.293H526.472V258.527L662.55 71.3659H708.482V245.649H755.702V290.293ZM656.541 179.971L660.404 143.912H658.687L644.092 174.82L599.448 232.771L577.984 249.083L605.458 245.649H656.541V179.971Z" fill="black"/>
<path d="M291.927 223.327C291.927 170.67 300.942 131.607 318.971 106.137C337.001 80.3805 362.9 67.5024 396.669 67.5024C432.727 67.5024 459.199 80.2374 476.084 105.707C492.968 130.891 501.41 170.098 501.41 223.327C501.41 276.27 492.253 315.62 473.937 341.376C455.908 367.132 430.009 380.01 396.24 380.01C360.467 380.01 334.139 366.559 317.254 339.659C300.37 312.472 291.927 273.694 291.927 223.327ZM347.732 223.327C347.732 258.241 351.453 285.285 358.893 304.459C366.62 323.346 379.212 332.79 396.669 332.79C413.554 332.79 425.859 324.062 433.586 306.605C441.599 289.148 445.606 261.389 445.606 223.327C445.606 188.699 441.885 161.941 434.445 143.054C427.004 124.166 414.269 114.722 396.24 114.722C379.069 114.722 366.62 123.594 358.893 141.337C351.453 159.08 347.732 186.41 347.732 223.327Z" fill="#EA961B"/>
</svg>
