<svg viewBox="0 0 22 109" fill="none" xmlns="http://www.w3.org/2000/svg">
<path d="M20.5312 54.1311L20.5312 0L21.9991 6.41599e-08L21.9991 54.1311L20.5312 54.1311Z" fill="#FF8500"/>
<path d="M17.6016 54.1311L17.6016 0L19.0694 6.41599e-08L19.0694 54.1311L17.6016 54.1311Z" fill="#FF8500"/>
<path d="M14.6758 54.1311L14.6758 0L16.1436 6.41599e-08L16.1436 54.1311L14.6758 54.1311Z" fill="#FF8500"/>
<path d="M13.208 54.1311L11.7402 54.1311L11.7402 6.01519L13.208 6.41601e-08L13.208 54.1311Z" fill="#FF8500"/>
<path d="M10.2745 54.131L8.80664 54.131L8.80664 18.0426L10.2745 12.0303L10.2745 54.131Z" fill="#FF8500"/>
<path d="M7.3389 54.1317L5.87109 54.1317L5.87109 30.0738L7.3389 24.0586L7.3389 54.1317Z" fill="#FF8500"/>
<path d="M4.40335 54.1306L2.93555 54.1306L2.93555 42.1003L4.40335 36.0879L4.40335 54.1306Z" fill="#FF8500"/>
<path d="M1.46781 54.1314L-2.62932e-07 54.1314L1.46781 48.1162L1.46781 54.1314Z" fill="#FF8500"/>
<path d="M19.0684 108.263L19.0684 54.1318L21.9955 54.1318L21.9955 108.263L19.0684 108.263Z" fill="black"/>
<path d="M16.1367 108.263L16.1367 54.1318L17.6045 54.1318L17.6045 108.263L16.1367 108.263Z" fill="black"/>
<path d="M13.207 108.263L13.207 54.1318L14.6748 54.1318L14.6748 108.263L13.207 108.263Z" fill="black"/>
<path d="M10.2734 54.1318L11.7384 54.1318L11.7384 102.248L10.2734 96.2325L10.2734 54.1318Z" fill="black"/>
<path d="M7.33984 54.1318L8.80765 54.1318L8.80765 90.2202L7.33984 84.205L7.33984 54.1318Z" fill="black"/>
<path d="M4.40234 54.1318L5.87015 54.1318L5.87015 78.1898L4.40234 72.1746L4.40234 54.1318Z" fill="black"/>
<path d="M1.46875 54.1318L2.93656 54.1318L2.93656 66.1622L1.46875 60.147L1.46875 54.1318Z" fill="black"/>
</svg>
