<svg width="514" height="106" viewBox="0 0 514 106" fill="none" xmlns="http://www.w3.org/2000/svg">
<g opacity="0.2">
<path d="M257.002 98.3906H0V105.355H257.002V98.3906Z" fill="#FF8500"/>
<path d="M257.002 84.4883H0V91.4527H257.002V84.4883Z" fill="#FF8500"/>
<path d="M257.002 70.6035H0V77.5679H257.002V70.6035Z" fill="#FF8500"/>
<path d="M257.002 63.6382V56.6738H28.5588L0 63.6382H257.002Z" fill="#FF8500"/>
<path d="M257 49.7164V42.752H85.6606L57.1152 49.7164H257Z" fill="#FF8500"/>
<path d="M257.006 35.7925V28.8281H142.784L114.226 35.7925H257.006Z" fill="#FF8500"/>
<path d="M256.999 21.8648V14.9004H199.881L171.336 21.8648H256.999Z" fill="#FF8500"/>
<path d="M257.005 7.93509V0.970703L228.446 7.93509H257.005Z" fill="#FF8500"/>
<path d="M514 91.4512H256.998V105.34H514V91.4512Z" fill="black"/>
<path d="M514 77.5332H256.998V84.4976H514V77.5332Z" fill="black"/>
<path d="M514 63.6367H256.998V70.6011H514V63.6367Z" fill="black"/>
<path d="M256.998 49.7129V56.6639H485.441L456.883 49.7129H256.998Z" fill="black"/>
<path d="M256.998 35.791V42.7554H428.337L399.779 35.791H256.998Z" fill="black"/>
<path d="M256.998 21.8672V28.8316H371.22L342.661 21.8672H256.998Z" fill="black"/>
<path d="M256.998 7.9375V14.9019H314.116L285.557 7.9375H256.998Z" fill="black"/>
</g>
</svg>
