<svg width="22" height="109" viewBox="0 0 22 109" fill="none" xmlns="http://www.w3.org/2000/svg">
<path d="M1.46875 54.1316L1.46875 108.263L0.000943065 108.263L0.00094371 54.1316L1.46875 54.1316Z" fill="#FF8500"/>
<path d="M4.39844 54.1316L4.39844 108.263L2.93063 108.263L2.93063 54.1316L4.39844 54.1316Z" fill="#FF8500"/>
<path d="M7.32422 54.1316L7.32422 108.263L5.85641 108.263L5.85641 54.1316L7.32422 54.1316Z" fill="#FF8500"/>
<path d="M8.79196 54.1316L10.2598 54.1316L10.2598 102.248L8.79195 108.263L8.79196 54.1316Z" fill="#FF8500"/>
<path d="M11.7255 54.1317L13.1934 54.1317L13.1934 90.2201L11.7255 96.2324L11.7255 54.1317Z" fill="#FF8500"/>
<path d="M14.6611 54.131L16.1289 54.131L16.1289 78.1889L14.6611 84.2041L14.6611 54.131Z" fill="#FF8500"/>
<path d="M17.5966 54.1321L19.0645 54.1321L19.0645 66.1624L17.5966 72.1748L17.5966 54.1321Z" fill="#FF8500"/>
<path d="M20.5322 54.1313L22 54.1313L20.5322 60.1465L20.5322 54.1313Z" fill="#FF8500"/>
<path d="M2.93164 -0.000190735L2.93164 54.1309L0.00449061 54.1309L0.00449126 -0.00019077L2.93164 -0.000190735Z" fill="black"/>
<path d="M5.86328 -0.000190735L5.86328 54.1309L4.39547 54.1309L4.39547 -0.000190752L5.86328 -0.000190735Z" fill="black"/>
<path d="M8.79297 -0.000190735L8.79297 54.1309L7.32516 54.1309L7.32516 -0.000190752L8.79297 -0.000190735Z" fill="black"/>
<path d="M11.7266 54.1309L10.2616 54.1309L10.2616 6.01499L11.7266 12.0302L11.7266 54.1309Z" fill="black"/>
<path d="M14.6602 54.1309L13.1923 54.1309L13.1923 18.0425L14.6602 24.0577L14.6602 54.1309Z" fill="black"/>
<path d="M17.5977 54.1309L16.1298 54.1309L16.1298 30.0729L17.5977 36.0881L17.5977 54.1309Z" fill="black"/>
<path d="M20.5312 54.1309L19.0634 54.1309L19.0634 42.1005L20.5313 48.1157L20.5312 54.1309Z" fill="black"/>
</svg>
