<svg width="190" height="65" viewBox="0 0 190 65" fill="none" xmlns="http://www.w3.org/2000/svg">
<path d="M0.068222 16.2055C4.28185 29.4522 8.22929 42.8635 13.5375 55.802C14.1677 57.4399 16.4899 56.741 16.0742 55.1548C13.9577 45.9568 11.0943 37.0364 8.36398 28.0336C31.2298 52.9708 65.027 67.2765 98.994 64.7029C137.695 61.7821 173.847 37.212 189.904 1.29036C190.377 0.2608 188.978 -0.533081 188.291 0.44485C170.175 33.5846 136.804 57.9092 98.8497 60.5524C63.7582 63.0842 28.5839 47.4182 6.60336 19.7215C6.27739 19.1858 5.84824 19.0825 5.3376 18.8453C5.2561 18.7114 5.2262 18.3612 5.14471 18.2273C16.4573 20.2633 27.9763 21.4344 39.6201 21.6066C42.3498 21.5774 42.2055 17.427 39.4758 17.4562C27.0552 17.2114 14.7595 15.9677 2.50706 13.5912C1.21962 13.2815 -0.347458 14.6193 0.068222 16.2055Z" fill="#1D1D1B"/>
</svg>
