<svg width="82" height="18" viewBox="0 0 82 18" fill="none" xmlns="http://www.w3.org/2000/svg">
<path d="M40.9998 16.0195L0 16.0195L0 17.1313L40.9998 17.1313V16.0195Z" fill="#FF8500"/>
<path d="M40.9998 13.7998L0 13.7998L0 14.9115L40.9998 14.9115V13.7998Z" fill="#FF8500"/>
<path d="M40.9998 11.583L0 11.583L0 12.6947L40.9998 12.6947V11.583Z" fill="#FF8500"/>
<path d="M40.9998 10.4721V9.36035L4.55601 9.36035L0 10.4721L40.9998 10.4721Z" fill="#FF8500"/>
<path d="M41 8.24944V7.1377L13.6661 7.1377L9.11224 8.24944L41 8.24944Z" fill="#FF8500"/>
<path d="M41.0006 6.0258V4.91406L22.7787 4.91406L18.2227 6.0258L41.0006 6.0258Z" fill="#FF8500"/>
<path d="M40.9998 3.80315V2.69141L31.8878 2.69141L27.3339 3.80315L40.9998 3.80315Z" fill="#FF8500"/>
<path d="M41.0001 1.57952V0.467773L36.4441 1.57952L41.0001 1.57952Z" fill="#FF8500"/>
<path d="M82 14.9111L41.0002 14.9111V17.1282L82 17.1282V14.9111Z" fill="black"/>
<path d="M82 12.6904L41.0002 12.6904V13.8022L82 13.8022V12.6904Z" fill="black"/>
<path d="M82 10.4717L41.0002 10.4717V11.5834L82 11.5834V10.4717Z" fill="black"/>
<path d="M41.0002 8.24902V9.35863L77.444 9.35863L72.888 8.24902L41.0002 8.24902Z" fill="black"/>
<path d="M41.0002 6.02637V7.13811L68.3341 7.13811L63.7781 6.02637L41.0002 6.02637Z" fill="black"/>
<path d="M41.0002 3.80273V4.91448L59.2221 4.91448L54.6661 3.80273L41.0002 3.80273Z" fill="black"/>
<path d="M41.0002 1.58105V2.6928L50.1122 2.6928L45.5562 1.58105L41.0002 1.58105Z" fill="black"/>
</svg>
