<svg width="115" height="73" viewBox="0 0 115 73" fill="none" xmlns="http://www.w3.org/2000/svg">
<path d="M0.297231 31.0938H0V31.391V33.2071V33.5043H0.297231H3.76889V41.6039V41.9011H4.06613H6.13783H6.43506V41.6039V33.5043H9.90672H10.2039V33.2071V31.391V31.0938H9.90672H0.297231Z" fill="black"/>
<path d="M14.4845 39.4965V37.2494H20.0546H20.3519V36.9522V35.2461V34.9488H20.0546H14.4845V33.5043H20.8126H21.1098V33.2071V31.391V31.0938H20.8126H12.1156H11.8184V31.391V41.6039V41.9011H12.1156H20.9493H21.2465V41.6039V39.7937V39.4965H20.9493H14.4845Z" fill="black"/>
<path d="M31.1974 38.4681C31.4615 38.3433 31.7116 38.1909 31.9434 38.0133C32.2478 37.778 32.511 37.4938 32.7222 37.1722C32.9316 36.8572 33.0873 36.5097 33.1829 36.1437C33.2831 35.7655 33.333 35.3758 33.3315 34.9845C33.3404 34.4293 33.2394 33.8777 33.0343 33.3617C32.8312 32.8756 32.5105 32.4476 32.101 32.1163C31.6461 31.759 31.1232 31.4981 30.5643 31.3494C29.8728 31.1683 29.1598 31.0823 28.445 31.0938H22.9492V41.9011H25.6243V38.9942H28.3618L30.1957 41.7614L30.2819 41.8952H33.5515L33.2215 41.4345L31.1974 38.4681ZM30.0709 36.1556C29.8826 36.3063 29.6664 36.4184 29.4348 36.4856C29.1283 36.5718 28.8109 36.6129 28.4926 36.6074H25.6154V33.4924H28.4926C29.2089 33.4924 29.7439 33.6262 30.0798 33.8937C30.2397 34.025 30.3662 34.1923 30.4488 34.3819C30.5315 34.5715 30.568 34.7781 30.5554 34.9845C30.5592 35.2175 30.5168 35.4488 30.4305 35.6652C30.352 35.8553 30.2286 36.0236 30.0709 36.1556Z" fill="black"/>
<path d="M44.9822 31.0938H44.8574L44.7712 31.1829L41.2698 34.6932L37.7714 31.1829L37.6822 31.0938H37.5603H35.4886H35.1914V31.391V41.6039V41.9011H35.4886H37.5603H37.8576V41.6039V34.9578L41.0647 38.046L41.2698 38.2451L41.4778 38.046L44.685 34.9578V41.6039V41.9011H44.9822H47.0539H47.3511V41.6039V31.391V31.0938H47.0539H44.9822Z" fill="black"/>
<path d="M49.6996 31.0938H49.4023V31.391V41.6039V41.9011H49.6996H51.7832H52.0804V41.6039V31.391V31.0938H51.7832H49.6996Z" fill="black"/>
<path d="M62.844 31.0938H62.5468V31.391V34.2325L56.62 31.1294L56.5546 31.0938H56.4803H54.4086H54.1113V31.391V41.6039V41.9011H54.4086H56.4803H56.7775V41.6039V34.0958L62.5468 37.0978V41.6039V41.9011H62.844H64.9157H65.2129V41.6039V31.391V31.0938H64.9157H62.844Z" fill="black"/>
<path d="M73.7466 31.2632L73.6664 31.0938H71.0953L71.0151 31.2661L66.2148 41.476L66.0156 41.9011H68.8572L68.9344 41.7257L69.6478 40.1831H75.2328L75.9699 41.7317L76.0502 41.9011H78.8857L78.6807 41.4731L73.7466 31.2632ZM70.7178 37.8825L72.4061 34.2414L74.139 37.8825H70.7178Z" fill="black"/>
<path d="M79.3129 31.0938H79.0156V31.391V33.2071V33.5043H79.3129H82.7845V41.6039V41.9011H83.0817H85.1534H85.4507V41.6039V33.5043H88.9223H89.2196V33.2071V31.391V31.0938H88.9223H79.3129Z" fill="black"/>
<path d="M114.479 41.4336L112.461 38.4613C112.725 38.3365 112.975 38.1841 113.207 38.0065C113.512 37.7712 113.775 37.487 113.986 37.1654C114.195 36.8504 114.351 36.5029 114.447 36.1369C114.547 35.7587 114.597 35.369 114.595 34.9777C114.604 34.4225 114.503 33.8709 114.298 33.3549C114.095 32.8688 113.774 32.4408 113.365 32.1095C112.91 31.7511 112.387 31.49 111.828 31.3426C111.136 31.1613 110.423 31.0753 109.709 31.087H104.213V41.8943H106.888V38.9874H109.625L111.459 41.7546L111.546 41.8884H114.815L114.479 41.4336ZM111.335 36.1548C111.146 36.3054 110.93 36.4175 110.698 36.4847C110.392 36.571 110.075 36.612 109.756 36.6066H106.879V33.4916H109.756C110.473 33.4916 111.008 33.6253 111.343 33.8928C111.503 34.0241 111.63 34.1914 111.713 34.381C111.795 34.5707 111.832 34.7772 111.819 34.9837C111.823 35.2166 111.78 35.448 111.694 35.6643C111.616 35.8544 111.492 36.0227 111.335 36.1548Z" fill="black"/>
<path d="M91.5416 32.8917C91.2882 33.1771 91.0679 33.4902 90.8848 33.825H94.4515C94.6208 33.737 94.7967 33.6624 94.9776 33.6021C95.8932 33.3168 96.8739 33.3168 97.7895 33.6021C97.9705 33.6623 98.1464 33.7368 98.3155 33.825H101.882C101.699 33.488 101.477 33.1729 101.222 32.8857L91.5416 32.8917Z" fill="black"/>
<path d="M98.8471 31.3524C97.2366 30.8252 95.4999 30.8252 93.8893 31.3524C93.494 31.4937 93.1136 31.6739 92.7539 31.8904H99.9855C99.6251 31.6733 99.2437 31.4931 98.8471 31.3524Z" fill="#FF8500"/>
<path d="M93.1558 35.1709C93.2106 35.0539 93.2731 34.9407 93.3431 34.832H90.4659C90.3579 35.2024 90.2882 35.5829 90.2578 35.9675H92.9329C92.9697 35.6928 93.0447 35.4247 93.1558 35.1709Z" fill="black"/>
<path d="M99.5815 37.7693C99.5316 37.8786 99.475 37.9849 99.4121 38.0873H102.283C102.387 37.7222 102.454 37.3479 102.485 36.9697H99.8104C99.7731 37.2459 99.696 37.5152 99.5815 37.7693Z" fill="black"/>
<path d="M97.7719 39.3802C96.8628 39.6809 95.881 39.6809 94.972 39.3802C94.7523 39.3031 94.5411 39.2035 94.3418 39.083H90.8672C91.0591 39.4473 91.2936 39.7875 91.5657 40.0966H101.178C101.449 39.7874 101.683 39.4472 101.874 39.083H98.399C98.2011 39.2041 97.9909 39.3037 97.7719 39.3802Z" fill="black"/>
<path d="M93.1578 37.7693C93.0464 37.5145 92.9714 37.2454 92.9348 36.9697H90.2598C90.2881 37.3483 90.3558 37.7228 90.4619 38.0873H93.3272C93.2625 37.9859 93.2059 37.8796 93.1578 37.7693Z" fill="black"/>
<path d="M99.5819 35.1738C99.696 35.4255 99.7712 35.6931 99.8048 35.9675H102.48C102.45 35.5826 102.379 35.2019 102.269 34.832H99.3887C99.4613 34.9411 99.5258 35.0554 99.5819 35.1738Z" fill="black"/>
<path d="M93.89 41.6365C95.499 42.1795 97.2418 42.1795 98.8508 41.6365C99.2396 41.4979 99.6131 41.3196 99.9654 41.1045H92.7754C93.1277 41.3196 93.5012 41.4979 93.89 41.6365Z" fill="#FF8500"/>
<path d="M57.2969 21.6211H0.296875V23.1667H57.2969V21.6211Z" fill="#FF8500"/>
<path d="M57.2969 18.5352H0.296875V20.0808H57.2969V18.5352Z" fill="#FF8500"/>
<path d="M57.2969 15.4531H0.296875V16.9987H57.2969V15.4531Z" fill="#FF8500"/>
<path d="M57.2969 13.9069V12.3613H6.63087L0.296875 13.9069H57.2969Z" fill="#FF8500"/>
<path d="M57.2969 10.819V9.27344H19.2959L12.9648 10.819H57.2969Z" fill="#FF8500"/>
<path d="M57.2979 7.72822V6.18262H31.9649L25.6309 7.72822H57.2979Z" fill="#FF8500"/>
<path d="M57.2979 4.63642V3.09082H44.6299L38.2988 4.63642H57.2979Z" fill="#FF8500"/>
<path d="M57.2969 1.5456V0L50.9629 1.5456H57.2969Z" fill="#FF8500"/>
<path d="M114.297 20.0811H57.2969V23.1633H114.297V20.0811Z" fill="black"/>
<path d="M114.297 16.9932H57.2969V18.5388H114.297V16.9932Z" fill="black"/>
<path d="M114.297 13.9072H57.2969V15.4528H114.297V13.9072Z" fill="black"/>
<path d="M57.2969 10.8193V12.362H107.963L101.629 10.8193H57.2969Z" fill="black"/>
<path d="M57.2969 7.72754V9.27314H95.2979L88.9639 7.72754H57.2969Z" fill="black"/>
<path d="M57.2969 4.63672V6.18232H82.6299L76.2959 4.63672H57.2969Z" fill="black"/>
<path d="M57.2969 1.5459V3.0915H69.9649L63.6309 1.5459H57.2969Z" fill="black"/>
<path d="M114.297 49.8369H57.2969V51.3825H114.297V49.8369Z" fill="#FF8500"/>
<path d="M114.297 52.9189H57.2969V54.4646H114.297V52.9189Z" fill="#FF8500"/>
<path d="M114.297 56.001H57.2969V57.5466H114.297V56.001Z" fill="#FF8500"/>
<path d="M57.2969 59.0928V60.6384H107.963L114.297 59.0928H57.2969Z" fill="#FF8500"/>
<path d="M57.2969 62.1807V63.7263H95.2979L101.629 62.1807H57.2969Z" fill="#FF8500"/>
<path d="M57.2969 65.2725V66.8181H82.6299L88.9639 65.2725H57.2969Z" fill="#FF8500"/>
<path d="M57.2969 68.3633V69.9089H69.9649L76.2959 68.3633H57.2969Z" fill="#FF8500"/>
<path d="M57.2969 71.4541V72.9997L63.6309 71.4541H57.2969Z" fill="#FF8500"/>
<path d="M57.2969 49.8369H0.296875V52.9192H57.2969V49.8369Z" fill="black"/>
<path d="M57.2969 54.4648H0.296875V56.0105H57.2969V54.4648Z" fill="black"/>
<path d="M57.2969 57.5469H0.296875V59.0925H57.2969V57.5469Z" fill="black"/>
<path d="M57.2969 62.1803V60.6377H6.63086L12.9649 62.1803H57.2969Z" fill="black"/>
<path d="M57.2979 65.2722V63.7266H19.2969L25.6309 65.2722H57.2979Z" fill="black"/>
<path d="M57.2979 68.363V66.8174H31.9648L38.2988 68.363H57.2979Z" fill="black"/>
<path d="M57.2969 71.4548V69.9092H44.6289L50.9629 71.4548H57.2969Z" fill="black"/>
</svg>
