<svg width="128" height="81" viewBox="0 0 128 81" fill="none" xmlns="http://www.w3.org/2000/svg">
<path d="M0.329805 34.502H0V34.8318V36.8469V37.1767H0.329805H4.18193V46.1639V46.4937H4.51173H6.81047H7.14027V46.1639V37.1767H10.9924H11.3222V36.8469V34.8318V34.502H10.9924H0.329805Z" fill="white"/>
<path d="M16.0716 43.8255V41.3322H22.2522H22.582V41.0024V39.1093V38.7795H22.2522H16.0716V37.1767H23.0932H23.423V36.8469V34.8318V34.502H23.0932H13.4431H13.1133V34.8318V46.1639V46.4937H13.4431H23.2449H23.5747V46.1639V44.1553V43.8255H23.2449H16.0716Z" fill="white"/>
<path d="M34.6169 42.6836C34.9099 42.5452 35.1874 42.376 35.4447 42.179C35.7825 41.9179 36.0745 41.6025 36.3088 41.2456C36.5412 40.8962 36.7139 40.5105 36.82 40.1045C36.9312 39.6849 36.9866 39.2524 36.9849 38.8183C36.9948 38.2021 36.8827 37.5902 36.6551 37.0175C36.4298 36.4782 36.0739 36.0033 35.6195 35.6357C35.1148 35.2393 34.5346 34.9498 33.9144 34.7848C33.1471 34.5838 32.356 34.4884 31.5629 34.5011H25.4648V46.4928H28.4331V43.2673H31.4706L33.5055 46.3378L33.6011 46.4862H37.229L36.8629 45.975L34.6169 42.6836ZM33.367 40.1177C33.158 40.2849 32.9182 40.4093 32.6612 40.4838C32.3211 40.5795 31.9689 40.6251 31.6157 40.619H28.4232V37.1626H31.6157C32.4105 37.1626 33.0042 37.3111 33.3769 37.6079C33.5543 37.7535 33.6946 37.9392 33.7863 38.1496C33.8781 38.36 33.9186 38.5892 33.9045 38.8183C33.9088 39.0767 33.8617 39.3334 33.766 39.5735C33.6788 39.7844 33.5419 39.9711 33.367 40.1177Z" fill="white"/>
<path d="M49.9126 34.502H49.7741L49.6784 34.6009L45.7933 38.4959L41.9115 34.6009L41.8126 34.502H41.6774H39.3786H39.0488V34.8318V46.1639V46.4937H39.3786H41.6774H42.0072V46.1639V38.7894L45.5658 42.2161L45.7933 42.4371L46.0242 42.2161L49.5828 38.7894V46.1639V46.4937H49.9126H52.2113H52.5411V46.1639V34.8318V34.502H52.2113H49.9126Z" fill="white"/>
<path d="M55.1462 34.502H54.8164V34.8318V46.1639V46.4937H55.1462H57.4581H57.7879V46.1639V34.8318V34.502H57.4581H55.1462Z" fill="white"/>
<path d="M69.7307 34.502H69.4009V34.8318V37.9847L62.8246 34.5415L62.752 34.502H62.6696H60.3708H60.041V34.8318V46.1639V46.4937H60.3708H62.6696H62.9994V46.1639V37.833L69.4009 41.164V46.1639V46.4937H69.7307H72.0294H72.3592V46.1639V34.8318V34.502H72.0294H69.7307Z" fill="white"/>
<path d="M81.8282 34.6899L81.7392 34.502H78.8864L78.7973 34.6932L73.471 46.022L73.25 46.4937H76.4029L76.4887 46.2991L77.2802 44.5874H83.4772L84.2952 46.3057L84.3842 46.4937H87.5306L87.303 46.0187L81.8282 34.6899ZM78.4675 42.0347L80.3408 37.9946L82.2636 42.0347H78.4675Z" fill="white"/>
<path d="M88.0056 34.502H87.6758V34.8318V36.8469V37.1767H88.0056H91.8577V46.1639V46.4937H92.1875H94.4862H94.8161V46.1639V37.1767H98.6682H98.998V36.8469V34.8318V34.502H98.6682H88.0056Z" fill="white"/>
<path d="M127.024 45.9739L124.785 42.6758C125.078 42.5374 125.355 42.3682 125.613 42.1712C125.95 41.9101 126.242 41.5947 126.477 41.2379C126.709 40.8884 126.882 40.5028 126.988 40.0967C127.099 39.6771 127.155 39.2446 127.153 38.8105C127.163 38.1944 127.051 37.5824 126.823 37.0098C126.598 36.4704 126.242 35.9955 125.788 35.6279C125.284 35.2302 124.703 34.9406 124.082 34.777C123.315 34.5758 122.524 34.4804 121.731 34.4933H115.633V46.485H118.601V43.2596H121.639L123.673 46.33L123.769 46.4785H127.397L127.024 45.9739ZM123.535 40.1165C123.326 40.2837 123.086 40.4081 122.829 40.4826C122.489 40.5783 122.137 40.6239 121.784 40.6178H118.591V37.1615H121.784C122.578 37.1615 123.172 37.3099 123.545 37.6067C123.722 37.7523 123.863 37.938 123.954 38.1484C124.046 38.3588 124.087 38.588 124.073 38.8171C124.077 39.0755 124.03 39.3322 123.934 39.5723C123.847 39.7833 123.71 39.97 123.535 40.1165Z" fill="white"/>
<path d="M101.573 36.4949C101.291 36.8115 101.047 37.1589 100.844 37.5305H104.801C104.989 37.4328 105.184 37.3501 105.385 37.2831C106.401 36.9666 107.489 36.9666 108.505 37.2831C108.706 37.3499 108.901 37.4327 109.089 37.5305H113.047C112.843 37.1565 112.597 36.8069 112.314 36.4883L101.573 36.4949Z" fill="white"/>
<path d="M109.679 34.7883C107.892 34.2034 105.965 34.2034 104.178 34.7883C103.739 34.945 103.317 35.145 102.918 35.3853H110.942C110.542 35.1444 110.119 34.9444 109.679 34.7883Z" fill="#FF8500"/>
<path d="M103.364 39.0244C103.425 38.8946 103.494 38.769 103.572 38.6484H100.379C100.26 39.0594 100.182 39.4816 100.148 39.9083H103.117C103.158 39.6036 103.241 39.3061 103.364 39.0244Z" fill="white"/>
<path d="M110.495 41.9067C110.439 42.0281 110.376 42.1459 110.307 42.2596H113.493C113.607 41.8544 113.682 41.4391 113.717 41.0195H110.749C110.707 41.326 110.622 41.6248 110.495 41.9067Z" fill="white"/>
<path d="M108.486 43.697C107.477 44.0306 106.388 44.0306 105.379 43.697C105.135 43.6114 104.901 43.5009 104.68 43.3672H100.824C101.037 43.7714 101.297 44.1489 101.599 44.4918H112.265C112.566 44.1488 112.825 43.7713 113.037 43.3672H109.181C108.962 43.5015 108.729 43.6121 108.486 43.697Z" fill="white"/>
<path d="M103.366 41.9067C103.242 41.624 103.159 41.3254 103.119 41.0195H100.15C100.182 41.4396 100.257 41.8552 100.375 42.2596H103.554C103.482 42.1471 103.419 42.0291 103.366 41.9067Z" fill="white"/>
<path d="M110.494 39.0277C110.62 39.307 110.704 39.6039 110.741 39.9083H113.709C113.676 39.4812 113.598 39.0589 113.475 38.6484H110.279C110.36 38.7695 110.432 38.8963 110.494 39.0277Z" fill="white"/>
<path d="M104.178 46.1978C105.964 46.8002 107.897 46.8002 109.683 46.1978C110.114 46.0439 110.528 45.8461 110.919 45.6074H102.941C103.332 45.8461 103.747 46.0439 104.178 46.1978Z" fill="#FF8500"/>
<path d="M63.5767 23.9902H0.330078V25.7052H63.5767V23.9902Z" fill="#FF8500"/>
<path d="M63.5767 20.5664H0.330078V22.2814H63.5767V20.5664Z" fill="#FF8500"/>
<path d="M63.5767 17.1465H0.330078V18.8615H63.5767V17.1465Z" fill="#FF8500"/>
<path d="M63.5767 15.4318V13.7168H7.35822L0.330078 15.4318H63.5767Z" fill="#FF8500"/>
<path d="M63.5751 12.0041V10.2891H21.4096L14.3848 12.0041H63.5751Z" fill="#FF8500"/>
<path d="M63.5768 8.57436V6.85938H35.4676L28.4395 8.57436H63.5768Z" fill="#FF8500"/>
<path d="M63.5753 5.14467V3.42969H49.519L42.4941 5.14467H63.5753Z" fill="#FF8500"/>
<path d="M63.577 1.71498V0L56.5488 1.71498H63.577Z" fill="#FF8500"/>
<path d="M126.823 22.2812H63.5762V25.7013H126.823V22.2812Z" fill="white"/>
<path d="M126.823 18.8535H63.5762V20.5685H126.823V18.8535Z" fill="white"/>
<path d="M126.823 15.4316H63.5762V17.1466H126.823V15.4316Z" fill="white"/>
<path d="M63.5762 12.0039V13.7156H119.795L112.767 12.0039H63.5762Z" fill="white"/>
<path d="M63.5762 8.57617V10.2912H105.742L98.7136 8.57617H63.5762Z" fill="white"/>
<path d="M63.5762 5.14453V6.85951H91.6854L84.6573 5.14453H63.5762Z" fill="white"/>
<path d="M63.5762 1.71484V3.42983H77.6324L70.6043 1.71484H63.5762Z" fill="white"/>
<path d="M126.823 55.2969H63.5762V57.0119H126.823V55.2969Z" fill="#FF8500"/>
<path d="M126.823 58.7188H63.5762V60.4337H126.823V58.7188Z" fill="#FF8500"/>
<path d="M126.823 62.1387H63.5762V63.8537H126.823V62.1387Z" fill="#FF8500"/>
<path d="M63.5762 65.5684V67.2833H119.795L126.823 65.5684H63.5762Z" fill="#FF8500"/>
<path d="M63.5762 68.9961V70.7111H105.742L112.767 68.9961H63.5762Z" fill="#FF8500"/>
<path d="M63.5762 72.4238V74.1388H91.6854L98.7136 72.4238H63.5762Z" fill="#FF8500"/>
<path d="M63.5762 75.8555V77.5704H77.6324L84.6573 75.8555H63.5762Z" fill="#FF8500"/>
<path d="M63.5762 79.2852V81.0001L70.6043 79.2852H63.5762Z" fill="#FF8500"/>
<path d="M63.5767 55.2969H0.330078V58.7169H63.5767V55.2969Z" fill="white"/>
<path d="M63.5767 60.4336H0.330078V62.1486H63.5767V60.4336Z" fill="white"/>
<path d="M63.5767 63.8535H0.330078V65.5685H63.5767V63.8535Z" fill="white"/>
<path d="M63.5759 68.9949V67.2832H7.35742L14.3856 68.9949H63.5759Z" fill="white"/>
<path d="M63.5757 72.4259V70.7109H21.4102L28.4383 72.4259H63.5757Z" fill="white"/>
<path d="M63.5761 75.8556V74.1406H35.4668L42.4949 75.8556H63.5761Z" fill="white"/>
<path d="M63.5758 79.2853V77.5703H49.5195L56.5477 79.2853H63.5758Z" fill="white"/>
</svg>
