<svg width="30" height="30" viewBox="0 0 30 30" fill="none" xmlns="http://www.w3.org/2000/svg">
<path d="M26.25 26.25L20.8125 20.8125" stroke="black" stroke-width="2" stroke-linecap="round" stroke-linejoin="round"/>
<path d="M13.75 23.75C19.2728 23.75 23.75 19.2728 23.75 13.75C23.75 8.22715 19.2728 3.75 13.75 3.75C8.22715 3.75 3.75 8.22715 3.75 13.75C3.75 19.2728 8.22715 23.75 13.75 23.75Z" stroke="black" stroke-width="2" stroke-linecap="round" stroke-linejoin="round"/>
<path d="M14.875 9.75C14.875 9.19772 14.4273 8.75 13.875 8.75C13.3227 8.75 12.875 9.19772 12.875 9.75L14.875 9.75ZM12.875 18C12.875 18.5523 13.3227 19 13.875 19C14.4273 19 14.875 18.5523 14.875 18L12.875 18ZM12.875 9.75L12.875 18L14.875 18L14.875 9.75L12.875 9.75Z" fill="black"/>
<path d="M18 14.875C18.5523 14.875 19 14.4273 19 13.875C19 13.3227 18.5523 12.875 18 12.875L18 14.875ZM9.75 12.875C9.19771 12.875 8.75 13.3227 8.75 13.875C8.75 14.4273 9.19771 14.875 9.75 14.875L9.75 12.875ZM18 12.875L9.75 12.875L9.75 14.875L18 14.875L18 12.875Z" fill="black"/>
</svg>
