<svg width="18" height="18" viewBox="0 0 18 18" fill="none" xmlns="http://www.w3.org/2000/svg">
<path d="M16.6069 13.0109C16.0421 12.5779 15.4584 12.1636 14.8559 11.7682C13.6885 10.9586 12.6153 10.9021 11.7304 12.2013C11.2408 12.9356 10.5442 12.9544 9.8287 12.6343C7.85172 11.7494 6.30778 10.3938 5.40402 8.41676C5.00862 7.53183 5.00862 6.75986 5.95004 6.13852C6.43958 5.81844 6.92912 5.42304 6.89146 4.70756C6.83498 3.76614 4.53791 0.659441 3.61531 0.320529C3.23875 0.18873 2.86218 0.18873 2.48561 0.320529C0.357993 1.03601 -0.526944 2.76823 0.320336 4.8017C2.84335 10.9021 7.30569 15.1385 13.4438 17.718C13.8015 17.8686 14.1781 17.9251 14.3852 17.9816C15.7785 18.0004 17.4166 16.6825 17.8873 15.3645C18.3392 14.1218 17.3789 13.6134 16.6069 13.0109Z" fill="white"/>
<path d="M9.73466 0.960856C14.2158 1.63868 16.287 3.72864 16.8518 8.15332C16.9083 8.56755 16.7577 9.17006 17.3413 9.18889C17.9627 9.20772 17.8121 8.58638 17.8121 8.19098C17.8685 4.01106 14.1782 0.151233 9.86646 0.019434C9.54637 0.0570909 8.86855 -0.206507 8.83089 0.508974C8.79323 0.979685 9.35809 0.904371 9.73466 0.960856Z" fill="white"/>
<path d="M10.6189 2.18449C10.1858 2.12801 9.62097 1.93972 9.52683 2.5234C9.41386 3.14474 10.054 3.06943 10.4683 3.16357C13.236 3.76608 14.1963 4.76399 14.6482 7.45646C14.7235 7.85186 14.5917 8.45437 15.2695 8.36023C15.7779 8.28491 15.5896 7.75772 15.6272 7.45646C15.6272 4.85813 13.3678 2.50458 10.6189 2.18449Z" fill="white"/>
<path d="M10.8645 4.29369C10.5821 4.29369 10.2997 4.33134 10.1867 4.6326C10.0361 5.08448 10.3561 5.19745 10.6951 5.23511C11.8248 5.40457 12.4273 6.06356 12.5402 7.17444C12.5779 7.4757 12.7662 7.72047 13.0674 7.68281C13.4817 7.62632 13.5193 7.26858 13.5005 6.92967C13.5382 5.70582 12.0884 4.25603 10.8645 4.29369Z" fill="white"/>
</svg>
