<svg width="19" height="16" viewBox="0 0 19 16" fill="none" xmlns="http://www.w3.org/2000/svg">
<path d="M4.62793 8.87578L6.702 14.6313C6.702 14.6313 6.96126 15.1758 7.24645 15.1758C7.53163 15.1758 11.6539 10.8721 11.6539 10.8721L16.2427 1.97949L4.70571 7.39802L4.62793 8.87578Z" fill="#C8DAEA"/>
<path d="M4.65335 9.0838L0.375568 7.6838C0.375568 7.6838 -0.142951 7.47639 0.0385309 7.00973C0.0644569 6.90602 0.142235 6.82824 0.349642 6.69861C1.3089 6.05047 17.8756 0.0875027 17.8756 0.0875027C17.8756 0.0875027 18.3422 -0.068056 18.6274 0.0356477C18.757 0.0874995 18.8348 0.139355 18.9126 0.346762C18.9385 0.42454 18.9645 0.580095 18.9385 0.735651C18.9385 0.839355 18.9126 0.943049 18.9126 1.0986C18.8089 2.73194 15.8015 14.8912 15.8015 14.8912C15.8015 14.8912 15.62 15.5912 14.9719 15.6171C14.7385 15.6171 14.4533 15.5653 14.1163 15.2801C12.8459 14.1912 8.46446 11.2357 7.47927 10.5875C7.42742 10.5616 7.40149 10.5097 7.40149 10.4579C7.37557 10.3801 7.45335 10.3023 7.45335 10.3023C7.45335 10.3023 15.1015 3.50972 15.3089 2.78379C15.3348 2.73194 15.257 2.70602 15.1793 2.73195C14.6608 2.91343 5.87186 8.48751 4.88668 9.0838C4.83483 9.10973 4.65335 9.0838 4.65335 9.0838Z" fill="white"/>
</svg>
