<svg width="23" height="23" viewBox="0 0 23 23" fill="none" xmlns="http://www.w3.org/2000/svg">
<path fill-rule="evenodd" clip-rule="evenodd" d="M19.3167 4.08735C17.266 2.03671 14.5572 0.922778 11.6458 0.897461C5.67104 0.897461 0.810257 5.75825 0.810257 11.733C0.810257 13.6317 1.31658 15.5051 2.2533 17.1507L0.708984 22.771L6.45586 21.252C8.0508 22.1128 9.82297 22.5685 11.6458 22.5685C17.6205 22.5685 22.4813 17.7077 22.4813 11.733C22.4813 8.84688 21.3673 6.138 19.3167 4.08735ZM11.6458 20.7457C10.0255 20.7457 8.43055 20.3153 7.06345 19.4798L6.73434 19.2773L3.3166 20.1634L4.228 16.8469L4.02546 16.5178C3.11406 15.0748 2.65837 13.4292 2.65837 11.733C2.65837 6.77091 6.70902 2.72026 11.6711 2.72026C14.0761 2.72026 16.3293 3.65697 18.0509 5.35318C19.7471 7.0494 20.6838 9.32789 20.6838 11.733C20.6585 16.7203 16.6078 20.7457 11.6458 20.7457ZM16.5825 14.0115C16.304 13.8849 14.9876 13.2266 14.7344 13.1254C14.4812 13.0241 14.304 12.9988 14.1268 13.252C13.9496 13.5304 13.4179 14.138 13.266 14.3153C13.1141 14.4925 12.9622 14.5178 12.6837 14.3912C12.4053 14.2646 11.5445 13.9608 10.5065 13.0494C9.69638 12.3406 9.16473 11.4545 8.98752 11.176C8.83562 10.8975 8.9622 10.7709 9.1141 10.619C9.24068 10.4925 9.39259 10.3152 9.51917 10.138C9.64575 9.98612 9.69639 9.85954 9.79765 9.68232C9.89892 9.50511 9.84828 9.35321 9.77234 9.20131C9.69638 9.07473 9.16473 7.73295 8.93688 7.2013C8.70903 6.66965 8.48118 6.7456 8.32929 6.7456C8.17739 6.7456 8.00017 6.7456 7.79763 6.7456C7.62042 6.7456 7.31662 6.82155 7.06345 7.07471C6.81029 7.3532 6.12674 8.01143 6.12674 9.32789C6.12674 10.6697 7.08877 11.9608 7.24067 12.138C7.36726 12.3153 9.13942 15.0494 11.8736 16.2393C12.5318 16.5178 13.0129 16.695 13.4179 16.8216C14.0762 17.0241 14.6584 16.9988 15.1141 16.9229C15.6458 16.8469 16.7091 16.2646 16.9369 15.6317C17.1648 14.9988 17.1648 14.4672 17.0888 14.3406C17.0382 14.214 16.861 14.138 16.5825 14.0115Z" fill="white"/>
</svg>
